<svg style="width: 100px; height: 100px" version="1.1" xmlns="http://www.w3.org/2000/svg" xmlns:xlink="http://www.w3.org/1999/xlink">
	<defs>
		<symbol id="home" x="0px" y="0px" width="200" height="200" viewBox="0 0 310 310">
			<title>home</title>
			<path d="M63.663,29.424c-0.143-1.093-0.701-2.065-1.575-2.737l-11.715-9.021V8.608c0-2.275-1.851-4.126-4.125-4.126
		c-2.273,0-4.125,1.851-4.125,4.126v2.705l-7.758-5.975c-0.718-0.551-1.612-0.856-2.517-0.856c-0.906,0-1.801,0.304-2.519,0.857
		L1.606,26.687c-1.802,1.389-2.139,3.983-0.751,5.785c0.788,1.022,1.979,1.608,3.271,1.608c0.664,0,1.302-0.153,1.88-0.451V55.09
		c0,2.275,1.851,4.127,4.126,4.127h18.534V39.732h6.351v19.482h18.271c2.274,0,4.125-1.85,4.125-4.127V33.472
		c0.649,0.399,1.387,0.608,2.157,0.608c1.289,0,2.482-0.586,3.27-1.606C63.514,31.601,63.807,30.518,63.663,29.424z M59.819,30.144
		c-0.08,0.105-0.189,0.122-0.247,0.122c-0.069,0-0.132-0.021-0.188-0.065L53.6,25.748V55.09c0,0.173-0.14,0.312-0.311,0.312H38.832
		l0.001-19.484H24.852v19.484H10.132c-0.171,0-0.31-0.141-0.31-0.312V25.96L4.315,30.2c-0.056,0.043-0.119,0.065-0.188,0.065
		c-0.059,0-0.167-0.017-0.248-0.121c-0.065-0.084-0.07-0.171-0.062-0.229c0.007-0.058,0.034-0.141,0.118-0.205L31.661,8.363
		c0.138-0.105,0.239-0.106,0.379,0l13.899,10.703V8.608c0-0.172,0.14-0.311,0.311-0.311s0.312,0.139,0.312,0.311v10.935
		l13.205,10.166c0.084,0.064,0.108,0.147,0.116,0.205C59.891,29.975,59.885,30.062,59.819,30.144z"></path>
		</symbol>
		<symbol id="contacts" x="0px" y="0px" width="100" height="100" viewBox="0 0 310 310">
			<title>contacts</title>
			<path d="M79.748,13.344c2.147-0.662,4.012-1.453,5.071-2.405c0,0,0.107,2.97,1.696,6.234
			c8.697,3.335,9.785,11.034,9.538,19.011v7.333c0.458-0.233,0.927-0.326,1.374-0.208c1.503,0.404,0.698,4.831,0.007,7.473
			c-0.673,2.57-2.613,4.098-4.098,3.826c-1.106,6.868-3.507,11.81-6.861,15.088c14.53,5.222,24.884,18.578,24.884,34.285h-9.91
			c-1.113-15.432-10.765-29.293-25.113-36.257c2.222-3.346,3.847-7.423,4.853-12.2c2.258-1.045,4.116-3.357,4.892-6.313
			c0.673-2.541,2.595-9.878-1.403-12.143v-4.753C84.815,28.06,85.051,19.567,79.748,13.344z M34.901,67.778
			c-2.072-3.293-3.579-7.347-4.559-12.25c-2.426-1.102-4.524-3.561-5.29-6.488c-0.787-3.003-2.065-9.792,1.786-11.961v-4.864
			c0-1.46-0.039-2.849-0.079-4.169c-0.132-4.531-0.043-8.425,1.177-11.621c-14.806,2.434-12.483,9.037-12.483,19.759v7.333
			c-0.458-0.233-0.923-0.326-1.367-0.208c-1.503,0.404-1.049,4.663-0.358,7.308c0.68,2.591,2.992,4.287,4.474,3.987
			c1.124,7.219,3.375,12.018,6.478,15.16C10.257,75.043,0,88.349,0,103.985h9.91C11.019,88.621,20.628,74.768,34.901,67.778z
			 M70.543,69.17c3.701-3.622,6.352-9.058,7.569-16.634c1.628,0.297,3.769-1.385,4.513-4.219c0.762-2.91,1.65-7.795-0.011-8.239
			c-0.49-0.132-1.002-0.032-1.51,0.225v-8.088c0.272-8.793-0.934-17.282-10.515-20.958c-1.754-3.6-1.865-6.875-1.865-6.875
			c-4.316,3.887-20.704,5.461-20.704,5.461l0.186,0.05c-20.779,2.137-17.78,9.606-17.78,22.321v8.088
			c-0.508-0.258-1.016-0.361-1.51-0.225c-1.657,0.444-1.156,5.143-0.39,8.056c0.748,2.856,3.296,4.728,4.928,4.398
			c1.242,7.959,3.726,13.256,7.14,16.713c-15.901,5.816-27.214,20.5-27.214,37.732h84.608C97.978,89.656,86.562,74.921,70.543,69.17
			z" />
		</symbol>
		<symbol id="messages" x="0px" y="0px" width="200" height="200" viewBox="0 0 310 310">
			<title>messages</title>
			<polygon points="15.454,1.752 15.454,35.541 40.879,35.541 52.62,48.719 52.62,35.541 60.731,35.541 60.731,1.752" />
			<polygon points="37.654,38.769 12.221,38.769 12.221,18.769 0,18.769 0,47.697 6.954,47.697 6.954,58.979 17.002,47.697 
				38.769,47.697 38.769,40.023 " />
		</symbol>
		<symbol id="projects" x="0px" y="0px" width="200" height="200" viewBox="0 0 310 310">
			<title>ideas</title>
			<path d="M39.172,54.864v-5.009c0.038-0.049,0.079-0.098,0.107-0.152c0.235-0.461,5.777-11.355,5.777-16.371
			c0-7.162-5.827-12.988-12.99-12.988c-7.163,0-12.99,5.826-12.99,12.988c0,4.205,4.636,13.361,5.91,15.797
			c-0.005,0.041-0.024,0.076-0.024,0.119v5.616c0,0.554,0.448,1,1,1h12.208C38.724,55.864,39.172,55.418,39.172,54.864z
			 M30.18,37.275h3.775v10.846c0,0.045,0.02,0.084,0.024,0.127h-3.826c0.005-0.043,0.025-0.082,0.025-0.127L30.18,37.275
			L30.18,37.275z M32.068,22.344c6.06,0,10.99,4.93,10.99,10.988c0,3.947-4.169,12.653-5.287,14.916H35.93
			c0.005-0.043,0.025-0.082,0.025-0.127V37.275h1.025c0.553,0,1-0.447,1-1s-0.447-1-1-1h-1.025v-0.5c0-0.553-0.448-1-1-1
			s-1,0.447-1,1v0.5H30.18v-0.5c0-0.553-0.448-1-1-1c-0.552,0-1,0.447-1,1v0.5h-1.335c-0.552,0-1,0.447-1,1s0.448,1,1,1h1.335
			v10.846c0,0.045,0.02,0.084,0.025,0.127h-1.422c-1.822-3.467-5.705-11.555-5.705-14.916
			C21.078,27.273,26.008,22.344,32.068,22.344z" />
			<path d="M29.18,57.117c-0.552,0-1,0.446-1,1c0,0.553,0.448,1,1,1h5.775c0.552,0,1-0.447,1-1c0-0.554-0.448-1-1-1H29.18z" />
			<path d="M33.068,13.04V6.018c0-0.553-0.449-1-1-1c-0.552,0-1,0.447-1,1v7.022c0,0.553,0.448,1,1,1
			C32.62,14.04,33.068,13.592,33.068,13.04z" />
			<path d="M49.085,21.087c0.256,0,0.512-0.098,0.707-0.293l4.965-4.966c0.391-0.391,0.391-1.023,0-1.414s-1.023-0.391-1.414,0
			l-4.965,4.966c-0.391,0.391-0.391,1.023,0,1.414C48.573,20.989,48.829,21.087,49.085,21.087z" />
			<path d="M45.551,7.988c-0.502-0.232-1.096-0.014-1.328,0.487l-2.95,6.371c-0.231,0.501-0.014,1.096,0.487,1.327
			c0.136,0.063,0.279,0.093,0.42,0.093c0.377,0,0.739-0.215,0.908-0.58l2.95-6.371C46.27,8.814,46.052,8.22,45.551,7.988z" />
			<path d="M20.344,7.237c-0.514,0.201-0.768,0.782-0.565,1.296l2.565,6.534c0.154,0.395,0.532,0.635,0.931,0.635
			c0.121,0,0.245-0.022,0.365-0.069c0.514-0.201,0.768-0.782,0.565-1.296L21.64,7.803C21.438,7.29,20.856,7.037,20.344,7.237z" />
			<path d="M1.812,26.417c-0.184,0.521,0.089,1.092,0.61,1.275l6.622,2.34c0.11,0.039,0.223,0.058,0.333,0.058
			c0.412,0,0.798-0.256,0.943-0.667c0.184-0.521-0.089-1.092-0.61-1.275l-6.622-2.34C2.569,25.624,1.997,25.896,1.812,26.417z" />
			<path d="M61.713,46.514l-6.622-2.338c-0.521-0.18-1.092,0.091-1.276,0.611c-0.184,0.521,0.09,1.092,0.61,1.275l6.622,2.337
			c0.11,0.038,0.223,0.058,0.333,0.058c0.412,0,0.798-0.258,0.943-0.668C62.507,47.269,62.232,46.697,61.713,46.514z" />
			<path d="M11.258,47.049c-0.239-0.498-0.837-0.711-1.334-0.471l-6.335,3.028c-0.498,0.237-0.709,0.836-0.471,1.334
			c0.172,0.358,0.53,0.567,0.903,0.567c0.145,0,0.292-0.03,0.431-0.098l6.335-3.029C11.285,48.145,11.496,47.547,11.258,47.049z" />
			<path d="M54.211,27.629l6.335-3.027c0.499-0.238,0.709-0.835,0.471-1.334c-0.238-0.498-0.835-0.709-1.333-0.471l-6.335,3.027
			c-0.499,0.238-0.709,0.835-0.471,1.334c0.172,0.358,0.53,0.568,0.903,0.568C53.925,27.728,54.072,27.695,54.211,27.629z" />
			<path d="M14.146,21.01c0.194,0.189,0.446,0.284,0.698,0.284c0.26,0,0.52-0.101,0.716-0.302c0.034-0.035,0.048-0.08,0.077-0.118
			c0.039-0.029,0.084-0.045,0.12-0.08c0.391-0.391,0.391-1.023,0-1.414l-4.963-4.966c-0.391-0.391-1.024-0.391-1.415,0
			c-0.049,0.05-0.074,0.111-0.111,0.167c-0.055,0.037-0.117,0.063-0.165,0.112c-0.386,0.396-0.378,1.028,0.018,1.414L14.146,21.01z" />
			<path d="M9.017,37.898c-0.02-0.553-0.498-1.02-1.034-0.965l-7.017,0.242C0.414,37.195-0.019,37.658,0,38.209
			C0.02,38.75,0.462,39.176,1,39.176c0.012,0,0.023,0,0.035-0.002l7.017-0.242C8.604,38.914,9.036,38.451,9.017,37.898z" />
			<path d="M63.1,35.033l-7.017,0.243c-0.552,0.019-0.984,0.481-0.965,1.033c0.019,0.541,0.462,0.966,0.999,0.966
			c0.012,0,0.022,0,0.035-0.001l7.017-0.243c0.552-0.02,0.984-0.48,0.965-1.033C64.115,35.445,63.651,34.983,63.1,35.033z" />

		</symbol>
		<symbol id="notify" x="0px" y="0px" width="60" height="60" viewBox="0 0 800 800">
			<g>
				<path d="M467.812,431.851l-36.629-61.056c-16.917-28.181-25.856-60.459-25.856-93.312V224c0-67.52-45.056-124.629-106.667-143.04
					V42.667C298.66,19.136,279.524,0,255.993,0s-42.667,19.136-42.667,42.667V80.96C151.716,99.371,106.66,156.48,106.66,224v53.483
					c0,32.853-8.939,65.109-25.835,93.291l-36.629,61.056c-1.984,3.307-2.027,7.403-0.128,10.752c1.899,3.349,5.419,5.419,9.259,5.419
					H458.66c3.84,0,7.381-2.069,9.28-5.397C469.839,439.275,469.775,435.136,467.812,431.851z" />
			</g>
			<g>
				<path d="M188.815,469.333C200.847,494.464,226.319,512,255.993,512s55.147-17.536,67.179-42.667H188.815z" />
			</g>
		</symbol>
	</defs>
</svg>
